# AST/ASF file generated using VICON BodyLanguage
# -----------------------------------------------
:version 1.10
:name VICON
:units
  mass 1.0
  length 0.45
  angle deg
:documentation
   .ast/.asf automatically generated from VICON data using
   VICON BodyBuilder and BodyLanguage model FoxedUp or BRILLIANT.MOD
:root
   order TX TY TZ RX RY RZ
   axis XYZ
   position 0 0 0  
   orientation 0 0 0 
:bonedata
  begin
     id 1 
     name lhipjoint
     direction 0.541323 -0.757556 0.364798 
     length 2.47576 
     axis 0 0 0  XYZ
  end
  begin
     id 2 
     name lfemur
     direction 0.34202 -0.939693 0  
     length 7.46493  
     axis 0 0 20  XYZ
    dof rx ry rz
    limits (-160.0 20.0)
           (-70.0 70.0)
           (-60.0 70.0)
  end
  begin
     id 3 
     name ltibia
     direction 0.34202 -0.939693 0   
     length 7.73805   
     axis 0 0 20   XYZ
    dof rx
    limits (-10.0 170.0)
  end
  begin
     id 4 
     name lfoot
     direction 0.107174 -0.294458 0.949636   
     length 2.25864   
     axis -90 7.62852e-016 20   XYZ
    dof rx rz
    limits (-45.0 90.0)
           (-70.0 20.0)
  end
  begin
     id 5 
     name ltoes
     direction 1.53606e-011 -4.21934e-011 1   
     length 1.12451   
     axis -90 7.62852e-016 20   XYZ
    dof rx
    limits (-90.0 20.0)
  end
  begin
     id 6 
     name rhipjoint
     direction -0.524745 -0.766967 0.36933   
     length 2.44538  
     axis 0 0 0  XYZ 
  end
  begin
     id 7 
     name rfemur
     direction -0.34202 -0.939693 0   
     length 7.61604   
     axis 0 0 -20   XYZ
    dof rx ry rz
    limits (-160.0 20.0)
           (-70.0 70.0)
           (-70.0 60.0)
  end
  begin
     id 8 
     name rtibia
     direction -0.34202 -0.939693 0   
     length 7.61056   
     axis 0 0 -20   XYZ
    dof rx
    limits (-10.0 170.0)
 end
 begin
     id 9 
     name rfoot
     direction -0.12616 -0.346623 0.929482   
     length 2.46372  
     axis -90 -7.62852e-016 -20   XYZ
    dof rx rz
    limits (-45.0 90.0)
           (-20.0 70.0)
  end
  begin
     id 10 
     name rtoes
     direction -1.53531e-011 -4.22004e-011 1   
     length 1.21611   
     axis -90 -7.62852e-016 -20   XYZ
    dof rx
    limits (-90.0 20.0)
  end
  begin
     id 11 
     name lowerback
     direction -0.000778023 0.997293 -0.0735223   
     length 2.06139   
     axis 0 0 0   XYZ
    dof rx ry rz
    limits (-20.0 45.0)
           (-30.0 30.0)
           (-30.0 30.0)
  end
  begin
     id 12 
     name upperback
     direction 0.0222598 0.999722 -0.0078355   
     length 2.06383   
     axis 0 0 0   XYZ
    dof rx ry rz
    limits (-20.0 45.0)
           (-30.0 30.0)
           (-30.0 30.0)
  end
  begin
     id 13 
     name thorax
     direction 0.0219654 0.999405 0.0265994   
     length 2.07163   
     axis 0 0 0   XYZ
    dof rx ry rz
    limits (-20.0 45.0)
           (-30.0 30.0)
           (-30.0 30.0)
  end
  begin
     id 14 
     name lowerneck
     direction 0.0213282 0.988147 0.15202   
     length 1.75969   
     axis 0 0 0   XYZ
    dof rx ry rz
    limits (-20.0 45.0)
           (-30.0 30.0)
           (-30.0 30.0)
  end
  begin
     id 15 
     name upperneck
     direction -0.0546456 0.982624 -0.177379   
     length 1.79244   
     axis 0 0 0   XYZ
    dof rx ry rz
    limits (-20.0 45.0)
           (-30.0 30.0)
           (-30.0 30.0)
  end
  begin
     id 16
     name head
     direction -0.0199987 0.996855 -0.076686  
     length 1.80555  
     axis 0 0 0   XYZ
    dof rx ry rz
    limits (-20.0 45.0)
           (-30.0 30.0)
           (-30.0 30.0)
  end
  begin
     id 17 
     name lclavicle
     direction 0.929565 0.363219 -0.063096  
     length 3.55722  
     axis 0 0 0   XYZ
    dof ry rz
    limits (-20.0 10.0)
           (0.0 20.0)
  end
  begin
     id 18 
     name lhumerus
     direction 1 -4.48993e-011 -2.36203e-027   
     length 4.92785   
     axis 180 -30 -90   XYZ
    dof rx ry rz
    limits (-60.0 90.0)
           (-90.0 90.0)
           (-90.0 90.0)
  end
  begin
     id 19
     name lradius
     direction 1 -4.48947e-011 2.02997e-027   
     length 3.44052   
     axis 180 -30 -90   XYZ
    dof rx
    limits (-10.0 170.0)
  end
  begin
     id 20
     name lwrist
     direction 1 -4.48962e-011 1.45991e-027   
     length 1.72026   
     axis 1.49639e-024 90 90   XYZ
    dof ry
    limits (-180.0 0.0)
 end
  begin
     id 21 
     name lhand
     direction 1 -4.48984e-011 2.91906e-027   
     length 0.654326   
     axis -1.863e-015 90 90   XYZ
    dof rx rz
    limits (-90.0 90.0)
           (-45.0 45.0)
  end
  begin
     id 22 
     name lfingers
     direction 1 -4.48961e-011 5.83968e-027   
     length 0.527534   
     axis -3.72598e-015 90 90   XYZ
    dof rx
    limits (0.0 90.0)
  end
  begin
     id 23
     name lthumb
     direction 0.707107 -6.34963e-011 0.707107   
     length 0.757437   
     axis -90 45 -6.68868e-015   XYZ
    dof rx rz
    limits (-45.0 45.0)
           (-45.0 45.0)
  end
  begin
     id 24 
     name rclavicle
     direction -0.902944 0.422599 -0.0781198   
     length 3.54432  
     axis 0 0 0   XYZ 
    dof ry rz
    limits (-10.0 20.0)
           (-20.0 0.0)
  end
  begin
     id 25 
     name rhumerus
     direction -1 -4.48953e-011 -4.75835e-028  
     length 5.09181   
     axis 180 30 90   XYZ
    dof rx ry rz
    limits (-90.0 60.0)
           (-90.0 90.0)
           (-90.0 90.0)
  end
  begin
     id 26 
     name rradius
     direction -1 -4.48986e-011 -3.25889e-027   
     length 3.49865   
     axis 180 30 90   XYZ
    dof rx
    limits (-10.0 170.0)
  end
  begin
     id 27 
     name rwrist
     direction -1 -4.48963e-011 1.45989e-027   
     length 1.74933   
     axis 1.49639e-024 -90 -90   XYZ
    dof ry
    limits (-180.0 0.0)
  end
  begin
     id 28
     name rhand
     direction -1 -4.49003e-011 2.91844e-027   
     length 0.66641   
     axis -1.863e-015 -90 -90   XYZ
    dof rx rz
    limits (-90.0 90.0)
           (-45.0 45.0)
  end
  begin
     id 29
     name rfingers
     direction -1 -4.48973e-011 5.83886e-027   
     length 0.537277   
     axis -3.72598e-015 -90 -90   XYZ
    dof rx
    limits (0.0 90.0)
  end
  begin
     id 30
     name rthumb
     direction -0.707107 -6.34976e-011 0.707107   
     length 0.771425   
     axis -90 -45 6.68868e-015   XYZ
    dof rx rz
    limits (-45.0 45.0)
           (-45.0 45.0)
  end
:hierarchy
  begin
    root lhipjoint rhipjoint lowerback
    lhipjoint lfemur
    lfemur ltibia
    ltibia lfoot
    lfoot ltoes
    rhipjoint rfemur
    rfemur rtibia
    rtibia rfoot
    rfoot rtoes
    lowerback upperback
    upperback thorax
    thorax lowerneck lclavicle rclavicle
    lowerneck upperneck
    upperneck head
    lclavicle lhumerus
    lhumerus lradius
    lradius lwrist
    lwrist lhand lthumb
    lhand lfingers
    rclavicle rhumerus
    rhumerus rradius
    rradius rwrist
    rwrist rhand rthumb
    rhand rfingers
  end

#!OML:ASF H:\LiuWeirdWalks\Patient Classification 1\Patient 1\Session 1\male.ASF
:FULLY-SPECIFIED
:DEGREES
148
root -1.77849 17.8643 -29.0717 3.04547 4.21499 -5.45483
lowerback 9.43012 -2.81427 -0.363209
upperback 3.80432 -3.72866 1.39113
thorax -1.21371 -1.87146 2.01945
lowerneck -16.1072 4.38874 6.78165
upperneck 34.9558 7.03927 -7.35418
head 15.5301 2.84495 -3.05965
rclavicle 2.20651e-014 1.59028e-015
rhumerus -20.1004 -30.0886 -8.56961
rradius 25.9554
rwrist 1.0338
rhand -21.2 -0.544676
rfingers 7.12502
rthumb 5.18123 -30.4613
lclavicle 2.20651e-014 1.59028e-015
lhumerus -16.4777 28.4822 31.1068
lradius 26.8067
lwrist 3.02549
lhand -19.8423 1.35543
lfingers 7.12502
lthumb 6.49209 31.2359
rfemur -0.173567 1.45833 26.5266
rtibia 19.9116
rfoot -13.2939 -23.9566
rtoes -2.74779
lfemur -30.0449 3.55067 -3.2627
ltibia 28.153
lfoot -10.3117 12.9942
ltoes -17.1276
149
root -1.75859 17.8571 -29.0127 3.00593 3.85957 -5.71657
lowerback 9.43072 -2.76261 -0.390227
upperback 3.83064 -3.66422 1.34227
thorax -1.19075 -1.83971 1.97691
lowerneck -16.0378 4.48716 6.88191
upperneck 34.8997 7.13358 -7.30493
head 15.4986 2.90492 -3.03775
rclavicle 4.92986e-014 -1.66979e-014
rhumerus -20.0043 -29.9787 -8.44088
rradius 26.0101
rwrist 0.828517
rhand -21.1979 -0.612117
rfingers 7.12502
rthumb 5.18324 -30.5287
lclavicle 4.92986e-014 -1.66979e-014
lhumerus -16.4992 28.5448 31.0488
lradius 26.8166
lwrist 3.03992
lhand -19.88 1.3248
lfingers 7.12502
lthumb 6.45567 31.2064
rfemur 0.213319 1.55924 26.7418
rtibia 19.5931
rfoot -13.1915 -23.8413
rtoes -2.96215
lfemur -30.0114 3.51196 -2.84813
ltibia 27.8415
lfoot -10.2939 13.4279
ltoes -16.9073
150
root -1.73761 17.8491 -28.952 2.97204 3.4992 -5.97824
lowerback 9.43446 -2.68901 -0.418625
upperback 3.85424 -3.57111 1.27409
thorax -1.17449 -1.79344 1.91267
lowerneck -16.0119 4.54631 6.95797
upperneck 34.8759 7.15457 -7.19584
head 15.4811 2.93784 -2.99995
rclavicle 2.40529e-014 -8.74653e-015
rhumerus -19.9941 -29.9122 -8.27218
rradius 26.0708
rwrist 0.645082
rhand -21.2182 -0.701938
rfingers 7.12502
rthumb 5.1637 -30.619
lclavicle 2.40529e-014 -8.74653e-015
lhumerus -16.4487 28.5723 31.0123
lradius 26.8213
lwrist 3.08562
lhand -19.9373 1.32481
lfingers 7.12502
lthumb 6.40033 31.2081
rfemur 0.59254 1.65774 26.9508
rtibia 19.2959
rfoot -13.1061 -23.72
rtoes -3.19378
lfemur -29.952 3.46338 -2.43166
ltibia 27.5522
lfoot -10.2719 13.8751
ltoes -16.7815
151
root -1.71558 17.84 -28.89 2.9423 3.14428 -6.23369
lowerback 9.44224 -2.6378 -0.471689
upperback 3.865 -3.50943 1.22154
thorax -1.16998 -1.76303 1.88209
lowerneck -15.9571 4.6243 6.97878
upperneck 34.8262 7.21463 -7.0677
head 15.4444 2.98296 -2.93654
rclavicle 8.34896e-015 5.56597e-015
rhumerus -19.8877 -29.8642 -8.13215
rradius 26.1228
rwrist 0.466049
rhand -21.1956 -0.752502
rfingers 7.12502
rthumb 5.18548 -30.6691
lclavicle 8.34896e-015 5.56597e-015
lhumerus -16.4948 28.6408 30.9339
lradius 26.831
lwrist 3.14076
lhand -19.9879 1.309
lfingers 7.12502
lthumb 6.35147 31.1938
rfemur 0.963357 1.74209 27.1455
rtibia 19.0278
rfoot -13.0344 -23.5886
rtoes -3.45576
lfemur -29.8695 3.40239 -2.02334
ltibia 27.2866
lfoot -10.2674 14.3169
ltoes -16.7096
152
root -1.69262 17.8295 -28.8265 2.91614 2.78427 -6.48161
lowerback 9.45094 -2.59436 -0.53769
upperback 3.8767 -3.45938 1.15884
thorax -1.16444 -1.73848 1.84944
lowerneck -15.9174 4.71833 7.0151
upperneck 34.7428 7.28832 -6.93432
head 15.397 3.03633 -2.87005
rclavicle -2.26615e-014 4.77083e-015
rhumerus -19.7493 -29.88 -8.01753
rradius 26.1611
rwrist 0.37465
rhand -21.1799 -0.79565
rfingers 7.12502
rthumb 5.20063 -30.7118
lclavicle -2.26615e-014 4.77083e-015
lhumerus -16.5694 28.7151 30.8214
lradius 26.8533
lwrist 3.25158
lhand -20.0492 1.30704
lfingers 7.12502
lthumb 6.29231 31.1936
rfemur 1.32433 1.82737 27.3251
rtibia 18.795
rfoot -12.9917 -23.448
rtoes -3.72736
lfemur -29.7605 3.34503 -1.62864
ltibia 27.044
lfoot -10.2662 14.7465
ltoes -16.6441
